<svg width="1920" height="939" xmlns="http://www.w3.org/2000/svg"><g><path d="M-116.21729973703623,-16.030999710783362L-132.4902410712093,316.44700365141034L-116.57691976055503,48.01979382522404Z" fill="#fffadd" stroke="#fffadd"></path><path d="M-116.21729973703623,-16.030999710783362L-116.57691976055503,48.01979382522404L23.800512263551354,27.500392897054553Z" fill="#fffbee" stroke="#fffbee"></path><path d="M-116.21729973703623,-16.030999710783362L23.800512263551354,27.500392897054553L109.43669032305479,-61.00644235499203Z" fill="#fff7ec" stroke="#fff7ec"></path><path d="M109.43669032305479,-61.00644235499203L23.800512263551354,27.500392897054553L197.64905191026628,69.99946718104184Z" fill="#fff2de" stroke="#fff2de"></path><path d="M109.43669032305479,-61.00644235499203L197.64905191026628,69.99946718104184L223.9574815146625,-45.91984600760043Z" fill="#ffefda" stroke="#ffefda"></path><path d="M109.43669032305479,-61.00644235499203L223.9574815146625,-45.91984600760043L709.6518230158836,-113.3355070464313Z" fill="#fee7c8" stroke="#fee7c8"></path><path d="M223.9574815146625,-45.91984600760043L197.64905191026628,69.99946718104184L327.95068077743053,131.40996529720724Z" fill="#feebc6" stroke="#feebc6"></path><path d="M223.9574815146625,-45.91984600760043L327.95068077743053,131.40996529720724L391.6306043509394,-16.77534442394972Z" fill="#fee9c6" stroke="#fee9c6"></path><path d="M223.9574815146625,-45.91984600760043L391.6306043509394,-16.77534442394972L551.2695865239948,-41.19832397438586Z" fill="#fee5c4" stroke="#fee5c4"></path><path d="M223.9574815146625,-45.91984600760043L551.2695865239948,-41.19832397438586L709.6518230158836,-113.3355070464313Z" fill="#feddbe" stroke="#feddbe"></path><path d="M391.6306043509394,-16.77534442394972L327.95068077743053,131.40996529720724L495.78060225583613,50.933070704340935Z" fill="#fee2b6" stroke="#fee2b6"></path><path d="M391.6306043509394,-16.77534442394972L495.78060225583613,50.933070704340935L551.2695865239948,-41.19832397438586Z" fill="#fedebf" stroke="#fedebf"></path><path d="M551.2695865239948,-41.19832397438586L495.78060225583613,50.933070704340935L700.2972710877657,79.20108575373888Z" fill="#fed4b1" stroke="#fed4b1"></path><path d="M551.2695865239948,-41.19832397438586L700.2972710877657,79.20108575373888L709.6518230158836,-113.3355070464313Z" fill="#fed0b4" stroke="#fed0b4"></path><path d="M709.6518230158836,-113.3355070464313L700.2972710877657,79.20108575373888L803.4122254606336,52.91412675753236Z" fill="#fec9ad" stroke="#fec9ad"></path><path d="M709.6518230158836,-113.3355070464313L803.4122254606336,52.91412675753236L883.1915584299713,-66.31657110527158Z" fill="#fdc4ab" stroke="#fdc4ab"></path><path d="M709.6518230158836,-113.3355070464313L883.1915584299713,-66.31657110527158L1029.8792154248804,-100.28829954564571Z" fill="#fabda7" stroke="#fabda7"></path><path d="M709.6518230158836,-113.3355070464313L1029.8792154248804,-100.28829954564571L2016.4745481032878,-122.78431417420506Z" fill="#eb9b93" stroke="#eb9b93"></path><path d="M883.1915584299713,-66.31657110527158L803.4122254606336,52.91412675753236L964.9139479268342,80.69908889941871Z" fill="#fabca1" stroke="#fabca1"></path><path d="M883.1915584299713,-66.31657110527158L964.9139479268342,80.69908889941871L1029.8792154248804,-100.28829954564571Z" fill="#f8b6a3" stroke="#f8b6a3"></path><path d="M1029.8792154248804,-100.28829954564571L964.9139479268342,80.69908889941871L1102.8964136727154,97.93319365940988Z" fill="#f5ae99" stroke="#f5ae99"></path><path d="M1029.8792154248804,-100.28829954564571L1102.8964136727154,97.93319365940988L1176.6841899231076,-55.47535551711917Z" fill="#f3a99c" stroke="#f3a99c"></path><path d="M1029.8792154248804,-100.28829954564571L1176.6841899231076,-55.47535551711917L1395.8862730208784,-89.7518203407526Z" fill="#eea096" stroke="#eea096"></path><path d="M1029.8792154248804,-100.28829954564571L1395.8862730208784,-89.7518203407526L2016.4745481032878,-122.78431417420506Z" fill="#dd8583" stroke="#dd8583"></path><path d="M1176.6841899231076,-55.47535551711917L1102.8964136727154,97.93319365940988L1284.3578773923218,72.91044470854104Z" fill="#efa08d" stroke="#efa08d"></path><path d="M1176.6841899231076,-55.47535551711917L1284.3578773923218,72.91044470854104L1317.989221997559,-59.11609570495784Z" fill="#eb9a92" stroke="#eb9a92"></path><path d="M1176.6841899231076,-55.47535551711917L1317.989221997559,-59.11609570495784L1395.8862730208784,-89.7518203407526Z" fill="#e89790" stroke="#e89790"></path><path d="M1317.989221997559,-59.11609570495784L1284.3578773923218,72.91044470854104L1394.3176480103284,60.99171741865575Z" fill="#e69287" stroke="#e69287"></path><path d="M1317.989221997559,-59.11609570495784L1394.3176480103284,60.99171741865575L1395.8862730208784,-89.7518203407526Z" fill="#e4908b" stroke="#e4908b"></path><path d="M1395.8862730208784,-89.7518203407526L1394.3176480103284,60.99171741865575L1525.5580947641283,-38.583292588591576Z" fill="#df8986" stroke="#df8986"></path><path d="M1395.8862730208784,-89.7518203407526L1525.5580947641283,-38.583292588591576L1859.126547574997,-98.64105482585728Z" fill="#d68080" stroke="#d68080"></path><path d="M1395.8862730208784,-89.7518203407526L1859.126547574997,-98.64105482585728L2016.4745481032878,-122.78431417420506Z" fill="#cb8080" stroke="#cb8080"></path><path d="M1525.5580947641283,-38.583292588591576L1394.3176480103284,60.99171741865575L1549.4184277486056,34.05894907191396Z" fill="#dc847e" stroke="#dc847e"></path><path d="M1525.5580947641283,-38.583292588591576L1549.4184277486056,34.05894907191396L1757.7964631002396,-46.43526189029217Z" fill="#d58080" stroke="#d58080"></path><path d="M1525.5580947641283,-38.583292588591576L1757.7964631002396,-46.43526189029217L1859.126547574997,-98.64105482585728Z" fill="#ce8080" stroke="#ce8080"></path><path d="M1757.7964631002396,-46.43526189029217L1549.4184277486056,34.05894907191396L1674.4368514884263,113.83146892301738Z" fill="#d17f78" stroke="#d17f78"></path><path d="M1757.7964631002396,-46.43526189029217L1674.4368514884263,113.83146892301738L1879.7227586992085,112.96204808168113Z" fill="#cb7e71" stroke="#cb7e71"></path><path d="M1757.7964631002396,-46.43526189029217L1879.7227586992085,112.96204808168113L1859.126547574997,-98.64105482585728Z" fill="#c78080" stroke="#c78080"></path><path d="M1859.126547574997,-98.64105482585728L1879.7227586992085,112.96204808168113L1992.1790626365691,112.20849067904055Z" fill="#c27e76" stroke="#c27e76"></path><path d="M1859.126547574997,-98.64105482585728L1992.1790626365691,112.20849067904055L2016.4745481032878,-122.78431417420506Z" fill="#bf8080" stroke="#bf8080"></path><path d="M2016.4745481032878,-122.78431417420506L1992.1790626365691,112.20849067904055L2035.0063527747989,175.0612862315029Z" fill="#bb7e72" stroke="#bb7e72"></path><path d="M-116.57691976055503,48.01979382522404L-132.4902410712093,316.44700365141034L-103.34088471718132,175.8331034425646Z" fill="#fff7cd" stroke="#fff7cd"></path><path d="M-116.57691976055503,48.01979382522404L-103.34088471718132,175.8331034425646L23.800512263551354,27.500392897054553Z" fill="#fff8de" stroke="#fff8de"></path><path d="M23.800512263551354,27.500392897054553L-103.34088471718132,175.8331034425646L86.45732425153255,180.12173174880445Z" fill="#fff4cd" stroke="#fff4cd"></path><path d="M23.800512263551354,27.500392897054553L86.45732425153255,180.12173174880445L197.64905191026628,69.99946718104184Z" fill="#fff0cb" stroke="#fff0cb"></path><path d="M197.64905191026628,69.99946718104184L86.45732425153255,180.12173174880445L248.2095808815211,240.2957891765982Z" fill="#ffeab2" stroke="#ffeab2"></path><path d="M197.64905191026628,69.99946718104184L248.2095808815211,240.2957891765982L327.95068077743053,131.40996529720724Z" fill="#fee7ae" stroke="#fee7ae"></path><path d="M327.95068077743053,131.40996529720724L248.2095808815211,240.2957891765982L400.0776097923517,185.11278209276497Z" fill="#fee29e" stroke="#fee29e"></path><path d="M327.95068077743053,131.40996529720724L400.0776097923517,185.11278209276497L495.78060225583613,50.933070704340935Z" fill="#fee0a6" stroke="#fee0a6"></path><path d="M495.78060225583613,50.933070704340935L400.0776097923517,185.11278209276497L560.8652695454657,269.3427225854248Z" fill="#fed895" stroke="#fed895"></path><path d="M495.78060225583613,50.933070704340935L560.8652695454657,269.3427225854248L700.2972710877657,79.20108575373888Z" fill="#fed197" stroke="#fed197"></path><path d="M700.2972710877657,79.20108575373888L560.8652695454657,269.3427225854248L734.9963746871799,247.17580170370638Z" fill="#fec784" stroke="#fec784"></path><path d="M700.2972710877657,79.20108575373888L734.9963746871799,247.17580170370638L803.4122254606336,52.91412675753236Z" fill="#fec48f" stroke="#fec48f"></path><path d="M803.4122254606336,52.91412675753236L734.9963746871799,247.17580170370638L805.2802216541022,255.96611173823476Z" fill="#fdbf7f" stroke="#fdbf7f"></path><path d="M803.4122254606336,52.91412675753236L805.2802216541022,255.96611173823476L964.9139479268342,80.69908889941871Z" fill="#fbba88" stroke="#fbba88"></path><path d="M964.9139479268342,80.69908889941871L805.2802216541022,255.96611173823476L1009.0508353337646,251.36664625257254Z" fill="#f9b175" stroke="#f9b175"></path><path d="M964.9139479268342,80.69908889941871L1009.0508353337646,251.36664625257254L1102.8964136727154,97.93319365940988Z" fill="#f5ab7d" stroke="#f5ab7d"></path><path d="M1102.8964136727154,97.93319365940988L1009.0508353337646,251.36664625257254L1125.3815547935665,248.52520831860602Z" fill="#f4a36d" stroke="#f4a36d"></path><path d="M1102.8964136727154,97.93319365940988L1125.3815547935665,248.52520831860602L1297.8395646158606,220.67722552455962Z" fill="#f09c6a" stroke="#f09c6a"></path><path d="M1102.8964136727154,97.93319365940988L1297.8395646158606,220.67722552455962L1284.3578773923218,72.91044470854104Z" fill="#ec9975" stroke="#ec9975"></path><path d="M1284.3578773923218,72.91044470854104L1297.8395646158606,220.67722552455962L1394.3176480103284,60.99171741865575Z" fill="#e69071" stroke="#e69071"></path><path d="M1394.3176480103284,60.99171741865575L1297.8395646158606,220.67722552455962L1411.724414890632,270.3135982621461Z" fill="#e48a5e" stroke="#e48a5e"></path><path d="M1394.3176480103284,60.99171741865575L1411.724414890632,270.3135982621461L1549.4184277486056,34.05894907191396Z" fill="#df8468" stroke="#df8468"></path><path d="M1549.4184277486056,34.05894907191396L1411.724414890632,270.3135982621461L1594.4922092556953,263.9527548942715Z" fill="#da7b53" stroke="#da7b53"></path><path d="M1549.4184277486056,34.05894907191396L1594.4922092556953,263.9527548942715L1674.4368514884263,113.83146892301738Z" fill="#d57b5e" stroke="#d57b5e"></path><path d="M1674.4368514884263,113.83146892301738L1594.4922092556953,263.9527548942715L1677.5411844905466,272.3386603407562Z" fill="#d2744e" stroke="#d2744e"></path><path d="M1674.4368514884263,113.83146892301738L1677.5411844905466,272.3386603407562L1879.7227586992085,112.96204808168113Z" fill="#cc7a57" stroke="#cc7a57"></path><path d="M1879.7227586992085,112.96204808168113L1677.5411844905466,272.3386603407562L1930.4642087593675,203.86681163683534Z" fill="#c77851" stroke="#c77851"></path><path d="M1879.7227586992085,112.96204808168113L1930.4642087593675,203.86681163683534L1992.1790626365691,112.20849067904055Z" fill="#c07b5d" stroke="#c07b5d"></path><path d="M1992.1790626365691,112.20849067904055L1930.4642087593675,203.86681163683534L2035.0063527747989,175.0612862315029Z" fill="#bd7b58" stroke="#bd7b58"></path><path d="M-103.34088471718132,175.8331034425646L-132.4902410712093,316.44700365141034L86.45732425153255,180.12173174880445Z" fill="#ffedbe" stroke="#ffedbe"></path><path d="M86.45732425153255,180.12173174880445L-132.4902410712093,316.44700365141034L48.20201366208494,391.4945596922189Z" fill="#ffdcae" stroke="#ffdcae"></path><path d="M86.45732425153255,180.12173174880445L48.20201366208494,391.4945596922189L191.68831466697156,319.24742041155696Z" fill="#ffd7a3" stroke="#ffd7a3"></path><path d="M86.45732425153255,180.12173174880445L191.68831466697156,319.24742041155696L248.2095808815211,240.2957891765982Z" fill="#ffdea4" stroke="#ffdea4"></path><path d="M248.2095808815211,240.2957891765982L191.68831466697156,319.24742041155696L393.5447652172297,334.0822452586144Z" fill="#fecf91" stroke="#fecf91"></path><path d="M248.2095808815211,240.2957891765982L393.5447652172297,334.0822452586144L400.0776097923517,185.11278209276497Z" fill="#fed491" stroke="#fed491"></path><path d="M400.0776097923517,185.11278209276497L393.5447652172297,334.0822452586144L560.8652695454657,269.3427225854248Z" fill="#fecb87" stroke="#fecb87"></path><path d="M560.8652695454657,269.3427225854248L393.5447652172297,334.0822452586144L561.7041329015046,383.21592145599425Z" fill="#feba7a" stroke="#feba7a"></path><path d="M560.8652695454657,269.3427225854248L561.7041329015046,383.21592145599425L678.4198336489499,341.71668715775013Z" fill="#feb273" stroke="#feb273"></path><path d="M560.8652695454657,269.3427225854248L678.4198336489499,341.71668715775013L734.9963746871799,247.17580170370638Z" fill="#feb677" stroke="#feb677"></path><path d="M734.9963746871799,247.17580170370638L678.4198336489499,341.71668715775013L787.4846097361296,403.8189988397062Z" fill="#fea76b" stroke="#fea76b"></path><path d="M734.9963746871799,247.17580170370638L787.4846097361296,403.8189988397062L805.2802216541022,255.96611173823476Z" fill="#fda96d" stroke="#fda96d"></path><path d="M805.2802216541022,255.96611173823476L787.4846097361296,403.8189988397062L1030.3017517738044,404.32303654029965Z" fill="#fa955f" stroke="#fa955f"></path><path d="M805.2802216541022,255.96611173823476L1030.3017517738044,404.32303654029965L1009.0508353337646,251.36664625257254Z" fill="#f89a64" stroke="#f89a64"></path><path d="M1009.0508353337646,251.36664625257254L1030.3017517738044,404.32303654029965L1125.3815547935665,248.52520831860602Z" fill="#f4915f" stroke="#f4915f"></path><path d="M1125.3815547935665,248.52520831860602L1030.3017517738044,404.32303654029965L1167.3699750658125,364.51963797211647Z" fill="#f38556" stroke="#f38556"></path><path d="M1125.3815547935665,248.52520831860602L1167.3699750658125,364.51963797211647L1305.0155452173203,326.4773634262383Z" fill="#ee8155" stroke="#ee8155"></path><path d="M1125.3815547935665,248.52520831860602L1305.0155452173203,326.4773634262383L1297.8395646158606,220.67722552455962Z" fill="#ec875a" stroke="#ec875a"></path><path d="M1297.8395646158606,220.67722552455962L1305.0155452173203,326.4773634262383L1411.724414890632,270.3135982621461Z" fill="#e67c52" stroke="#e67c52"></path><path d="M1411.724414890632,270.3135982621461L1305.0155452173203,326.4773634262383L1470.2482536435127,380.14700911939144Z" fill="#e26c46" stroke="#e26c46"></path><path d="M1411.724414890632,270.3135982621461L1470.2482536435127,380.14700911939144L1594.4922092556953,263.9527548942715Z" fill="#dc6643" stroke="#dc6643"></path><path d="M1594.4922092556953,263.9527548942715L1470.2482536435127,380.14700911939144L1543.7492392770946,397.30323454365134Z" fill="#d95a3a" stroke="#d95a3a"></path><path d="M1594.4922092556953,263.9527548942715L1543.7492392770946,397.30323454365134L1677.5411844905466,272.3386603407562Z" fill="#d5613f" stroke="#d5613f"></path><path d="M1677.5411844905466,272.3386603407562L1543.7492392770946,397.30323454365134L1741.9579915422946,420.4720624163747Z" fill="#d25737" stroke="#d25737"></path><path d="M1677.5411844905466,272.3386603407562L1741.9579915422946,420.4720624163747L1900.3855228610337,324.61533380672336Z" fill="#ca5c3b" stroke="#ca5c3b"></path><path d="M1677.5411844905466,272.3386603407562L1900.3855228610337,324.61533380672336L1930.4642087593675,203.86681163683534Z" fill="#c66a46" stroke="#c66a46"></path><path d="M1930.4642087593675,203.86681163683534L1900.3855228610337,324.61533380672336L2001.2948425579816,385.79138047993183Z" fill="#c06240" stroke="#c06240"></path><path d="M1930.4642087593675,203.86681163683534L2001.2948425579816,385.79138047993183L2035.0063527747989,175.0612862315029Z" fill="#bd6c48" stroke="#bd6c48"></path><path d="M2035.0063527747989,175.0612862315029L2001.2948425579816,385.79138047993183L2019.9160647578537,518.2717619184405Z" fill="#bb5738" stroke="#bb5738"></path><path d="M2035.0063527747989,175.0612862315029L2019.9160647578537,518.2717619184405L2027.6048798114061,638.6170988157392Z" fill="#bb462d" stroke="#bb462d"></path><path d="M-132.4902410712093,316.44700365141034L-87.78410512022674,1166.125525329262L-85.13853231444955,849.8642136063427Z" fill="#e77d77" stroke="#e77d77"></path><path d="M-132.4902410712093,316.44700365141034L-85.13853231444955,849.8642136063427L-51.80440669879317,528.1462604273111Z" fill="#ffa894" stroke="#ffa894"></path><path d="M-132.4902410712093,316.44700365141034L-51.80440669879317,528.1462604273111L48.20201366208494,391.4945596922189Z" fill="#ffc6a2" stroke="#ffc6a2"></path><path d="M48.20201366208494,391.4945596922189L-51.80440669879317,528.1462604273111L100.522330859676,572.2300139721483Z" fill="#ffb18f" stroke="#ffb18f"></path><path d="M48.20201366208494,391.4945596922189L100.522330859676,572.2300139721483L191.68831466697156,319.24742041155696Z" fill="#ffbc90" stroke="#ffbc90"></path><path d="M191.68831466697156,319.24742041155696L100.522330859676,572.2300139721483L213.28046210110188,584.7213463112712Z" fill="#ffab82" stroke="#ffab82"></path><path d="M191.68831466697156,319.24742041155696L213.28046210110188,584.7213463112712L369.2549821268767,564.470615806058Z" fill="#fea879" stroke="#fea879"></path><path d="M191.68831466697156,319.24742041155696L369.2549821268767,564.470615806058L393.5447652172297,334.0822452586144Z" fill="#feb77e" stroke="#feb77e"></path><path d="M393.5447652172297,334.0822452586144L369.2549821268767,564.470615806058L561.7041329015046,383.21592145599425Z" fill="#feab70" stroke="#feab70"></path><path d="M561.7041329015046,383.21592145599425L369.2549821268767,564.470615806058L579.3634396791458,552.8964999038726Z" fill="#fe9663" stroke="#fe9663"></path><path d="M561.7041329015046,383.21592145599425L579.3634396791458,552.8964999038726L692.654507914558,566.3990605808794Z" fill="#fe8d5c" stroke="#fe8d5c"></path><path d="M561.7041329015046,383.21592145599425L692.654507914558,566.3990605808794L678.4198336489499,341.71668715775013Z" fill="#fe9963" stroke="#fe9963"></path><path d="M678.4198336489499,341.71668715775013L692.654507914558,566.3990605808794L787.4846097361296,403.8189988397062Z" fill="#fe925d" stroke="#fe925d"></path><path d="M787.4846097361296,403.8189988397062L692.654507914558,566.3990605808794L838.0682527273893,549.1728771384805Z" fill="#fe7e52" stroke="#fe7e52"></path><path d="M787.4846097361296,403.8189988397062L838.0682527273893,549.1728771384805L1030.3017517738044,404.32303654029965Z" fill="#fa8052" stroke="#fa8052"></path><path d="M1030.3017517738044,404.32303654029965L838.0682527273893,549.1728771384805L965.8150339499116,565.3571835067123Z" fill="#f86f49" stroke="#f86f49"></path><path d="M1030.3017517738044,404.32303654029965L965.8150339499116,565.3571835067123L1172.4931378662586,535.4932712763548Z" fill="#f46744" stroke="#f46744"></path><path d="M1030.3017517738044,404.32303654029965L1172.4931378662586,535.4932712763548L1167.3699750658125,364.51963797211647Z" fill="#f26f49" stroke="#f26f49"></path><path d="M1167.3699750658125,364.51963797211647L1172.4931378662586,535.4932712763548L1305.0155452173203,326.4773634262383Z" fill="#ed6c47" stroke="#ed6c47"></path><path d="M1305.0155452173203,326.4773634262383L1172.4931378662586,535.4932712763548L1264.2535005882382,581.13445462659Z" fill="#eb5a3b" stroke="#eb5a3b"></path><path d="M1305.0155452173203,326.4773634262383L1264.2535005882382,581.13445462659L1393.6140619777143,519.0223406162113Z" fill="#e75338" stroke="#e75338"></path><path d="M1305.0155452173203,326.4773634262383L1393.6140619777143,519.0223406162113L1470.2482536435127,380.14700911939144Z" fill="#e25b3b" stroke="#e25b3b"></path><path d="M1470.2482536435127,380.14700911939144L1393.6140619777143,519.0223406162113L1539.7942479606718,513.0594977829605Z" fill="#de462e" stroke="#de462e"></path><path d="M1470.2482536435127,380.14700911939144L1539.7942479606718,513.0594977829605L1543.7492392770946,397.30323454365134Z" fill="#da4a30" stroke="#da4a30"></path><path d="M1543.7492392770946,397.30323454365134L1539.7942479606718,513.0594977829605L1673.2133292406797,541.39738060534Z" fill="#d63d28" stroke="#d63d28"></path><path d="M1543.7492392770946,397.30323454365134L1673.2133292406797,541.39738060534L1741.9579915422946,420.4720624163747Z" fill="#d2442c" stroke="#d2442c"></path><path d="M1741.9579915422946,420.4720624163747L1673.2133292406797,541.39738060534L1779.9630848318338,616.5692573413253Z" fill="#cd3423" stroke="#cd3423"></path><path d="M1741.9579915422946,420.4720624163747L1779.9630848318338,616.5692573413253L1861.401153439656,567.3312715161592Z" fill="#c93222" stroke="#c93222"></path><path d="M1741.9579915422946,420.4720624163747L1861.401153439656,567.3312715161592L1900.3855228610337,324.61533380672336Z" fill="#c7472e" stroke="#c7472e"></path><path d="M1900.3855228610337,324.61533380672336L1861.401153439656,567.3312715161592L2001.2948425579816,385.79138047993183Z" fill="#c14a2f" stroke="#c14a2f"></path><path d="M2001.2948425579816,385.79138047993183L1861.401153439656,567.3312715161592L2019.9160647578537,518.2717619184405Z" fill="#bf3c27" stroke="#bf3c27"></path><path d="M-51.80440669879317,528.1462604273111L-85.13853231444955,849.8642136063427L-21.006076661869884,651.3249223586172Z" fill="#f28c7e" stroke="#f28c7e"></path><path d="M-51.80440669879317,528.1462604273111L-21.006076661869884,651.3249223586172L100.522330859676,572.2300139721483Z" fill="#fc9f86" stroke="#fc9f86"></path><path d="M100.522330859676,572.2300139721483L-21.006076661869884,651.3249223586172L83.69413585402071,667.8073525428772Z" fill="#f7927b" stroke="#f7927b"></path><path d="M100.522330859676,572.2300139721483L83.69413585402071,667.8073525428772L184.2845086567104,665.0042211357504Z" fill="#f78d73" stroke="#f78d73"></path><path d="M100.522330859676,572.2300139721483L184.2845086567104,665.0042211357504L213.28046210110188,584.7213463112712Z" fill="#fa9273" stroke="#fa9273"></path><path d="M213.28046210110188,584.7213463112712L184.2845086567104,665.0042211357504L334.98826780356467,705.883419290185Z" fill="#f48464" stroke="#f48464"></path><path d="M213.28046210110188,584.7213463112712L334.98826780356467,705.883419290185L369.2549821268767,564.470615806058Z" fill="#f88962" stroke="#f88962"></path><path d="M369.2549821268767,564.470615806058L334.98826780356467,705.883419290185L487.7443397138268,672.8702383954078Z" fill="#f57d55" stroke="#f57d55"></path><path d="M369.2549821268767,564.470615806058L487.7443397138268,672.8702383954078L579.3634396791458,552.8964999038726Z" fill="#fb8258" stroke="#fb8258"></path><path d="M579.3634396791458,552.8964999038726L487.7443397138268,672.8702383954078L615.2263868506998,666.576651642099Z" fill="#f7744d" stroke="#f7744d"></path><path d="M579.3634396791458,552.8964999038726L615.2263868506998,666.576651642099L692.654507914558,566.3990605808794Z" fill="#fa774f" stroke="#fa774f"></path><path d="M692.654507914558,566.3990605808794L615.2263868506998,666.576651642099L840.8368996996433,635.0793913565576Z" fill="#f76945" stroke="#f76945"></path><path d="M692.654507914558,566.3990605808794L840.8368996996433,635.0793913565576L838.0682527273893,549.1728771384805Z" fill="#fb6c47" stroke="#fb6c47"></path><path d="M838.0682527273893,549.1728771384805L840.8368996996433,635.0793913565576L965.8150339499116,565.3571835067123Z" fill="#f86442" stroke="#f86442"></path><path d="M965.8150339499116,565.3571835067123L840.8368996996433,635.0793913565576L1006.0304738860577,674.4782795570791Z" fill="#f15538" stroke="#f15538"></path><path d="M965.8150339499116,565.3571835067123L1006.0304738860577,674.4782795570791L1094.6045393217355,634.470850462094Z" fill="#ee4e34" stroke="#ee4e34"></path><path d="M965.8150339499116,565.3571835067123L1094.6045393217355,634.470850462094L1172.4931378662586,535.4932712763548Z" fill="#f25439" stroke="#f25439"></path><path d="M1172.4931378662586,535.4932712763548L1094.6045393217355,634.470850462094L1264.2535005882382,581.13445462659Z" fill="#ed4a33" stroke="#ed4a33"></path><path d="M1264.2535005882382,581.13445462659L1094.6045393217355,634.470850462094L1311.3375565968454,711.5503314323723Z" fill="#e43827" stroke="#e43827"></path><path d="M1264.2535005882382,581.13445462659L1311.3375565968454,711.5503314323723L1393.6140619777143,519.0223406162113Z" fill="#e23726" stroke="#e23726"></path><path d="M1393.6140619777143,519.0223406162113L1311.3375565968454,711.5503314323723L1404.211424170062,729.9987853690982Z" fill="#da271b" stroke="#da271b"></path><path d="M1393.6140619777143,519.0223406162113L1404.211424170062,729.9987853690982L1556.3213631045073,639.7516228538007Z" fill="#d72519" stroke="#d72519"></path><path d="M1393.6140619777143,519.0223406162113L1556.3213631045073,639.7516228538007L1539.7942479606718,513.0594977829605Z" fill="#dc3221" stroke="#dc3221"></path><path d="M1539.7942479606718,513.0594977829605L1556.3213631045073,639.7516228538007L1673.2133292406797,541.39738060534Z" fill="#d62c1e" stroke="#d62c1e"></path><path d="M1673.2133292406797,541.39738060534L1556.3213631045073,639.7516228538007L1779.9630848318338,616.5692573413253Z" fill="#cd2419" stroke="#cd2419"></path><path d="M1861.401153439656,567.3312715161592L1779.9630848318338,616.5692573413253L1841.3009773381054,705.0780630949885Z" fill="#c01d14" stroke="#c01d14"></path><path d="M1861.401153439656,567.3312715161592L1841.3009773381054,705.0780630949885L2027.6048798114061,638.6170988157392Z" fill="#ba1b12" stroke="#ba1b12"></path><path d="M1861.401153439656,567.3312715161592L2027.6048798114061,638.6170988157392L2019.9160647578537,518.2717619184405Z" fill="#bd2a1c" stroke="#bd2a1c"></path><path d="M-21.006076661869884,651.3249223586172L-85.13853231444955,849.8642136063427L83.69413585402071,667.8073525428772Z" fill="#ed7f72" stroke="#ed7f72"></path><path d="M83.69413585402071,667.8073525428772L-85.13853231444955,849.8642136063427L106.79312059655786,874.8883331660181Z" fill="#e57769" stroke="#e57769"></path><path d="M83.69413585402071,667.8073525428772L106.79312059655786,874.8883331660181L197.29691924527287,783.0529115069658Z" fill="#e7725f" stroke="#e7725f"></path><path d="M83.69413585402071,667.8073525428772L197.29691924527287,783.0529115069658L184.2845086567104,665.0042211357504Z" fill="#ef7c64" stroke="#ef7c64"></path><path d="M184.2845086567104,665.0042211357504L197.29691924527287,783.0529115069658L334.98826780356467,705.883419290185Z" fill="#ed755a" stroke="#ed755a"></path><path d="M334.98826780356467,705.883419290185L197.29691924527287,783.0529115069658L434.92920085787773,785.1365870051086Z" fill="#e8694c" stroke="#e8694c"></path><path d="M334.98826780356467,705.883419290185L434.92920085787773,785.1365870051086L487.7443397138268,672.8702383954078Z" fill="#ed6a48" stroke="#ed6a48"></path><path d="M487.7443397138268,672.8702383954078L434.92920085787773,785.1365870051086L620.2306424919516,834.1310282796621Z" fill="#e85c3d" stroke="#e85c3d"></path><path d="M487.7443397138268,672.8702383954078L620.2306424919516,834.1310282796621L615.2263868506998,666.576651642099Z" fill="#ec5d3e" stroke="#ec5d3e"></path><path d="M615.2263868506998,666.576651642099L620.2306424919516,834.1310282796621L852.3459595441818,838.9235819131136Z" fill="#e64d31" stroke="#e64d31"></path><path d="M615.2263868506998,666.576651642099L852.3459595441818,838.9235819131136L840.8368996996433,635.0793913565576Z" fill="#ed5033" stroke="#ed5033"></path><path d="M840.8368996996433,635.0793913565576L852.3459595441818,838.9235819131136L1006.0304738860577,674.4782795570791Z" fill="#e8432c" stroke="#e8432c"></path><path d="M1006.0304738860577,674.4782795570791L852.3459595441818,838.9235819131136L1020.5432480480522,834.4352474436164Z" fill="#df3623" stroke="#df3623"></path><path d="M1006.0304738860577,674.4782795570791L1020.5432480480522,834.4352474436164L1094.4863274414092,772.4210957530886Z" fill="#df2f1f" stroke="#df2f1f"></path><path d="M1006.0304738860577,674.4782795570791L1094.4863274414092,772.4210957530886L1094.6045393217355,634.470850462094Z" fill="#e63a27" stroke="#e63a27"></path><path d="M1094.6045393217355,634.470850462094L1094.4863274414092,772.4210957530886L1311.3375565968454,711.5503314323723Z" fill="#e02e20" stroke="#e02e20"></path><path d="M1311.3375565968454,711.5503314323723L1094.4863274414092,772.4210957530886L1318.5319800954312,798.0614157021046Z" fill="#d61d14" stroke="#d61d14"></path><path d="M1311.3375565968454,711.5503314323723L1318.5319800954312,798.0614157021046L1404.211424170062,729.9987853690982Z" fill="#d1140d" stroke="#d1140d"></path><path d="M1404.211424170062,729.9987853690982L1318.5319800954312,798.0614157021046L1413.6272675637156,827.7653495594859Z" fill="#ca0f0b" stroke="#ca0f0b"></path><path d="M1404.211424170062,729.9987853690982L1413.6272675637156,827.7653495594859L1591.4392150193453,876.1669681314379Z" fill="#c20705" stroke="#c20705"></path><path d="M1404.211424170062,729.9987853690982L1591.4392150193453,876.1669681314379L1556.3213631045073,639.7516228538007Z" fill="#c60302" stroke="#c60302"></path><path d="M1556.3213631045073,639.7516228538007L1591.4392150193453,876.1669681314379L1767.3015927895904,782.6318547595292Z" fill="#bc0000" stroke="#bc0000"></path><path d="M1556.3213631045073,639.7516228538007L1767.3015927895904,782.6318547595292L1779.9630848318338,616.5692573413253Z" fill="#c2110c" stroke="#c2110c"></path><path d="M1779.9630848318338,616.5692573413253L1767.3015927895904,782.6318547595292L1841.3009773381054,705.0780630949885Z" fill="#b90c08" stroke="#b90c08"></path><path d="M1841.3009773381054,705.0780630949885L1767.3015927895904,782.6318547595292L1818.909652652219,804.5887811668217Z" fill="#b20000" stroke="#b20000"></path><path d="M1841.3009773381054,705.0780630949885L1818.909652652219,804.5887811668217L1986.6935125552118,803.1799323856831Z" fill="#ad0000" stroke="#ad0000"></path><path d="M1841.3009773381054,705.0780630949885L1986.6935125552118,803.1799323856831L2027.6048798114061,638.6170988157392Z" fill="#ae0906" stroke="#ae0906"></path><path d="M2027.6048798114061,638.6170988157392L1986.6935125552118,803.1799323856831L2012.3830621037632,954.1031685378402Z" fill="#a10000" stroke="#a10000"></path><path d="M2027.6048798114061,638.6170988157392L2012.3830621037632,954.1031685378402L2018.830577256158,1071.4220825582743Z" fill="#970000" stroke="#970000"></path><path d="M-85.13853231444955,849.8642136063427L-87.78410512022674,1166.125525329262L-38.213464664295316,934.1882319096476Z" fill="#d07c74" stroke="#d07c74"></path><path d="M-85.13853231444955,849.8642136063427L-38.213464664295316,934.1882319096476L17.405744651332498,931.8372741434723Z" fill="#d97a70" stroke="#d97a70"></path><path d="M-85.13853231444955,849.8642136063427L17.405744651332498,931.8372741434723L106.79312059655786,874.8883331660181Z" fill="#db786b" stroke="#db786b"></path><path d="M106.79312059655786,874.8883331660181L17.405744651332498,931.8372741434723L134.2109942715615,1072.4264454748482Z" fill="#d27464" stroke="#d27464"></path><path d="M106.79312059655786,874.8883331660181L134.2109942715615,1072.4264454748482L259.90964284166694,952.9044943861663Z" fill="#d2705c" stroke="#d2705c"></path><path d="M106.79312059655786,874.8883331660181L259.90964284166694,952.9044943861663L197.29691924527287,783.0529115069658Z" fill="#dc6f59" stroke="#dc6f59"></path><path d="M197.29691924527287,783.0529115069658L259.90964284166694,952.9044943861663L434.92920085787773,785.1365870051086Z" fill="#df6a4e" stroke="#df6a4e"></path><path d="M434.92920085787773,785.1365870051086L259.90964284166694,952.9044943861663L419.91234990768135,984.5432148501277Z" fill="#d86747" stroke="#d86747"></path><path d="M434.92920085787773,785.1365870051086L419.91234990768135,984.5432148501277L525.5479591526091,874.8141945060343Z" fill="#db6040" stroke="#db6040"></path><path d="M434.92920085787773,785.1365870051086L525.5479591526091,874.8141945060343L620.2306424919516,834.1310282796621Z" fill="#e05b3c" stroke="#e05b3c"></path><path d="M525.5479591526091,874.8141945060343L419.91234990768135,984.5432148501277L548.3833675459027,944.0607935283333Z" fill="#d55d3e" stroke="#d55d3e"></path><path d="M525.5479591526091,874.8141945060343L548.3833675459027,944.0607935283333L620.2306424919516,834.1310282796621Z" fill="#da573a" stroke="#da573a"></path><path d="M620.2306424919516,834.1310282796621L548.3833675459027,944.0607935283333L663.853597054258,925.5503454990685Z" fill="#d85437" stroke="#d85437"></path><path d="M620.2306424919516,834.1310282796621L663.853597054258,925.5503454990685L852.3459595441818,838.9235819131136Z" fill="#dc4b30" stroke="#dc4b30"></path><path d="M852.3459595441818,838.9235819131136L663.853597054258,925.5503454990685L815.1282590813935,927.7565347217023Z" fill="#d8462c" stroke="#d8462c"></path><path d="M852.3459595441818,838.9235819131136L815.1282590813935,927.7565347217023L963.4117207210511,1017.4176804721355Z" fill="#d13d27" stroke="#d13d27"></path><path d="M852.3459595441818,838.9235819131136L963.4117207210511,1017.4176804721355L1020.5432480480522,834.4352474436164Z" fill="#d23724" stroke="#d23724"></path><path d="M1020.5432480480522,834.4352474436164L963.4117207210511,1017.4176804721355L1133.043113714084,954.8785865306854Z" fill="#cb2f1f" stroke="#cb2f1f"></path><path d="M1020.5432480480522,834.4352474436164L1133.043113714084,954.8785865306854L1094.4863274414092,772.4210957530886Z" fill="#d32b1d" stroke="#d32b1d"></path><path d="M1094.4863274414092,772.4210957530886L1133.043113714084,954.8785865306854L1294.533712528646,925.2621012646705Z" fill="#cc2318" stroke="#cc2318"></path><path d="M1094.4863274414092,772.4210957530886L1294.533712528646,925.2621012646705L1318.5319800954312,798.0614157021046Z" fill="#ce1d14" stroke="#ce1d14"></path><path d="M1318.5319800954312,798.0614157021046L1294.533712528646,925.2621012646705L1413.6272675637156,827.7653495594859Z" fill="#c5130d" stroke="#c5130d"></path><path d="M1413.6272675637156,827.7653495594859L1294.533712528646,925.2621012646705L1450.6409526150674,1022.3100906796753Z" fill="#ba0f0a" stroke="#ba0f0a"></path><path d="M1413.6272675637156,827.7653495594859L1450.6409526150674,1022.3100906796753L1591.4392150193453,876.1669681314379Z" fill="#b60504" stroke="#b60504"></path><path d="M1591.4392150193453,876.1669681314379L1450.6409526150674,1022.3100906796753L1595.5031042732298,1003.8010890875012Z" fill="#ac0000" stroke="#ac0000"></path><path d="M1591.4392150193453,876.1669681314379L1595.5031042732298,1003.8010890875012L1701.890408853069,995.4600681457669Z" fill="#a70000" stroke="#a70000"></path><path d="M1591.4392150193453,876.1669681314379L1701.890408853069,995.4600681457669L1767.3015927895904,782.6318547595292Z" fill="#ac0000" stroke="#ac0000"></path><path d="M1767.3015927895904,782.6318547595292L1701.890408853069,995.4600681457669L1818.909652652219,804.5887811668217Z" fill="#aa0000" stroke="#aa0000"></path><path d="M1818.909652652219,804.5887811668217L1701.890408853069,995.4600681457669L1921.154262945056,1001.515642516315Z" fill="#9e0000" stroke="#9e0000"></path><path d="M1818.909652652219,804.5887811668217L1921.154262945056,1001.515642516315L1986.6935125552118,803.1799323856831Z" fill="#9f0000" stroke="#9f0000"></path><path d="M1986.6935125552118,803.1799323856831L1921.154262945056,1001.515642516315L2012.3830621037632,954.1031685378402Z" fill="#960000" stroke="#960000"></path><path d="M-38.213464664295316,934.1882319096476L-87.78410512022674,1166.125525329262L17.405744651332498,931.8372741434723Z" fill="#cd7a70" stroke="#cd7a70"></path><path d="M17.405744651332498,931.8372741434723L-87.78410512022674,1166.125525329262L134.2109942715615,1072.4264454748482Z" fill="#c8776b" stroke="#c8776b"></path><path d="M259.90964284166694,952.9044943861663L134.2109942715615,1072.4264454748482L273.9275333750993,1147.8714829590172Z" fill="#c76e56" stroke="#c76e56"></path><path d="M259.90964284166694,952.9044943861663L273.9275333750993,1147.8714829590172L346.56128738075495,1065.058061890304Z" fill="#c76a4f" stroke="#c76a4f"></path><path d="M259.90964284166694,952.9044943861663L346.56128738075495,1065.058061890304L419.91234990768135,984.5432148501277Z" fill="#cd684a" stroke="#cd684a"></path><path d="M419.91234990768135,984.5432148501277L346.56128738075495,1065.058061890304L551.0250175651163,1115.8251709118485Z" fill="#c76242" stroke="#c76242"></path><path d="M419.91234990768135,984.5432148501277L551.0250175651163,1115.8251709118485L548.3833675459027,944.0607935283333Z" fill="#cc5c3d" stroke="#cc5c3d"></path><path d="M548.3833675459027,944.0607935283333L551.0250175651163,1115.8251709118485L676.626752698794,1090.6409450154752Z" fill="#c75538" stroke="#c75538"></path><path d="M548.3833675459027,944.0607935283333L676.626752698794,1090.6409450154752L663.853597054258,925.5503454990685Z" fill="#ce5236" stroke="#ce5236"></path><path d="M663.853597054258,925.5503454990685L676.626752698794,1090.6409450154752L815.1282590813935,927.7565347217023Z" fill="#cf4b30" stroke="#cf4b30"></path><path d="M815.1282590813935,927.7565347217023L676.626752698794,1090.6409450154752L923.2685118354857,1084.9434724543244Z" fill="#c8442b" stroke="#c8442b"></path><path d="M815.1282590813935,927.7565347217023L923.2685118354857,1084.9434724543244L963.4117207210511,1017.4176804721355Z" fill="#c73b26" stroke="#c73b26"></path><path d="M963.4117207210511,1017.4176804721355L923.2685118354857,1084.9434724543244L1147.7747907489538,1131.8894333951175Z" fill="#bc3221" stroke="#bc3221"></path><path d="M963.4117207210511,1017.4176804721355L1147.7747907489538,1131.8894333951175L1133.043113714084,954.8785865306854Z" fill="#bf2b1d" stroke="#bf2b1d"></path><path d="M1133.043113714084,954.8785865306854L1147.7747907489538,1131.8894333951175L1290.3192158974707,1100.4918845929205Z" fill="#b72217" stroke="#b72217"></path><path d="M1133.043113714084,954.8785865306854L1290.3192158974707,1100.4918845929205L1294.533712528646,925.2621012646705Z" fill="#bc1d14" stroke="#bc1d14"></path><path d="M1294.533712528646,925.2621012646705L1290.3192158974707,1100.4918845929205L1450.6409526150674,1022.3100906796753Z" fill="#b3130d" stroke="#b3130d"></path><path d="M1450.6409526150674,1022.3100906796753L1290.3192158974707,1100.4918845929205L1439.1296882741153,1183.477733116597Z" fill="#a60e0a" stroke="#a60e0a"></path><path d="M1450.6409526150674,1022.3100906796753L1439.1296882741153,1183.477733116597L1537.8939407598227,1114.1904823109508Z" fill="#a10604" stroke="#a10604"></path><path d="M1450.6409526150674,1022.3100906796753L1537.8939407598227,1114.1904823109508L1595.5031042732298,1003.8010890875012Z" fill="#a40101" stroke="#a40101"></path><path d="M1595.5031042732298,1003.8010890875012L1537.8939407598227,1114.1904823109508L1710.2606487460434,1074.8736579995602Z" fill="#9c0000" stroke="#9c0000"></path><path d="M1595.5031042732298,1003.8010890875012L1710.2606487460434,1074.8736579995602L1701.890408853069,995.4600681457669Z" fill="#9d0000" stroke="#9d0000"></path><path d="M1701.890408853069,995.4600681457669L1710.2606487460434,1074.8736579995602L1921.154262945056,1001.515642516315Z" fill="#970000" stroke="#970000"></path><path d="M1921.154262945056,1001.515642516315L1710.2606487460434,1074.8736579995602L1877.8066473640501,1146.72994941473Z" fill="#8d0000" stroke="#8d0000"></path><path d="M1921.154262945056,1001.515642516315L1877.8066473640501,1146.72994941473L2018.830577256158,1071.4220825582743Z" fill="#870000" stroke="#870000"></path><path d="M1921.154262945056,1001.515642516315L2018.830577256158,1071.4220825582743L2012.3830621037632,954.1031685378402Z" fill="#8b0000" stroke="#8b0000"></path><path d="M-87.78410512022674,1166.125525329262L826.6317490953952,1183.9959760196507L273.9275333750993,1147.8714829590172Z" fill="#bb684a" stroke="#bb684a"></path><path d="M-87.78410512022674,1166.125525329262L273.9275333750993,1147.8714829590172L134.2109942715615,1072.4264454748482Z" fill="#c07362" stroke="#c07362"></path><path d="M273.9275333750993,1147.8714829590172L826.6317490953952,1183.9959760196507L551.0250175651163,1115.8251709118485Z" fill="#bd593b" stroke="#bd593b"></path><path d="M273.9275333750993,1147.8714829590172L551.0250175651163,1115.8251709118485L346.56128738075495,1065.058061890304Z" fill="#c16645" stroke="#c16645"></path><path d="M551.0250175651163,1115.8251709118485L826.6317490953952,1183.9959760196507L676.626752698794,1090.6409450154752Z" fill="#be4e32" stroke="#be4e32"></path><path d="M676.626752698794,1090.6409450154752L826.6317490953952,1183.9959760196507L923.2685118354857,1084.9434724543244Z" fill="#be432b" stroke="#be432b"></path><path d="M826.6317490953952,1183.9959760196507L1439.1296882741153,1183.477733116597L1147.7747907489538,1131.8894333951175Z" fill="#ae261a" stroke="#ae261a"></path><path d="M826.6317490953952,1183.9959760196507L1147.7747907489538,1131.8894333951175L923.2685118354857,1084.9434724543244Z" fill="#b73523" stroke="#b73523"></path><path d="M1147.7747907489538,1131.8894333951175L1439.1296882741153,1183.477733116597L1290.3192158974707,1100.4918845929205Z" fill="#a81810" stroke="#a81810"></path><path d="M1439.1296882741153,1183.477733116597L1877.8066473640501,1146.72994941473L1537.8939407598227,1114.1904823109508Z" fill="#930000" stroke="#930000"></path><path d="M1537.8939407598227,1114.1904823109508L1877.8066473640501,1146.72994941473L1710.2606487460434,1074.8736579995602Z" fill="#910000" stroke="#910000"></path></g></svg>