<svg width="1920" height="939" xmlns="http://www.w3.org/2000/svg"><path d="M-116.217-16.031l-16.273 332.478 15.913-268.427z" fill="#fffadd" stroke="#fffadd"/><path d="M-116.217-16.031l-.36 64.051 140.377-20.519z" fill="#fffbee" stroke="#fffbee"/><path d="M-116.217-16.031l140.018 43.531 85.636-88.507z" fill="#fff7ec" stroke="#fff7ec"/><path d="M109.437-61.006l-85.636 88.507 173.849 42.499z" fill="#fff2de" stroke="#fff2de"/><path d="M109.437-61.006l88.212 131.006 26.308-115.919z" fill="#ffefda" stroke="#ffefda"/><path d="M109.437-61.006l114.521 15.087 485.694-67.416z" fill="#fee7c8" stroke="#fee7c8"/><path d="M223.957-45.92l-26.308 115.919 130.302 61.41z" fill="#feebc6" stroke="#feebc6"/><path d="M223.957-45.92l103.993 177.33 63.68-148.185z" fill="#fee9c6" stroke="#fee9c6"/><path d="M223.957-45.92l167.673 29.145 159.639-24.423z" fill="#fee5c4" stroke="#fee5c4"/><path d="M223.957-45.92l327.312 4.722 158.382-72.137z" fill="#feddbe" stroke="#feddbe"/><path d="M391.631-16.775l-63.68 148.185 167.83-80.477z" fill="#fee2b6" stroke="#fee2b6"/><path d="M391.631-16.775l104.15 67.708 55.489-92.131z" fill="#fedebf" stroke="#fedebf"/><path d="M551.27-41.198l-55.489 92.131 204.517 28.268z" fill="#fed4b1" stroke="#fed4b1"/><path d="M551.27-41.198l149.028 120.399 9.355-192.537z" fill="#fed0b4" stroke="#fed0b4"/><path d="M709.652-113.336l-9.355 192.537 103.115-26.287z" fill="#fec9ad" stroke="#fec9ad"/><path d="M709.652-113.336l93.76 166.25 79.779-119.231z" fill="#fdc4ab" stroke="#fdc4ab"/><path d="M709.652-113.336l173.54 47.019 146.688-33.972z" fill="#fabda7" stroke="#fabda7"/><path d="M709.652-113.336l320.227 13.047 986.595-22.496z" fill="#eb9b93" stroke="#eb9b93"/><path d="M883.192-66.317l-79.779 119.231 161.502 27.785z" fill="#fabca1" stroke="#fabca1"/><path d="M883.192-66.317l81.722 147.016 64.965-180.987z" fill="#f8b6a3" stroke="#f8b6a3"/><path d="M1029.879-100.288l-64.965 180.987 137.982 17.234z" fill="#f5ae99" stroke="#f5ae99"/><path d="M1029.879-100.288l73.017 198.221 73.788-153.409z" fill="#f3a99c" stroke="#f3a99c"/><path d="M1029.879-100.288l146.805 44.813 219.202-34.276z" fill="#eea096" stroke="#eea096"/><path d="M1029.879-100.288l366.007 10.536 620.588-33.032z" fill="#dd8583" stroke="#dd8583"/><path d="M1176.684-55.475l-73.788 153.409 181.461-25.023z" fill="#efa08d" stroke="#efa08d"/><path d="M1176.684-55.475l107.674 128.386 33.631-132.027z" fill="#eb9a92" stroke="#eb9a92"/><path d="M1176.684-55.475l141.305-3.641 77.897-30.636z" fill="#e89790" stroke="#e89790"/><path d="M1317.989-59.116l-33.631 132.027 109.96-11.919z" fill="#e69287" stroke="#e69287"/><path d="M1317.989-59.116l76.328 120.108 1.569-150.744z" fill="#e4908b" stroke="#e4908b"/><path d="M1395.886-89.752l-1.569 150.744 131.24-99.575z" fill="#df8986" stroke="#df8986"/><path d="M1395.886-89.752l129.672 51.169 333.568-60.058z" fill="#d68080" stroke="#d68080"/><path d="M1395.886-89.752l463.24-8.889 157.348-24.143z" fill="#cb8080" stroke="#cb8080"/><path d="M1525.558-38.583l-131.24 99.575 155.101-26.933z" fill="#dc847e" stroke="#dc847e"/><path d="M1525.558-38.583l23.86 72.642 208.378-80.494z" fill="#d58080" stroke="#d58080"/><path d="M1525.558-38.583l232.238-7.852 101.33-52.206z" fill="#ce8080" stroke="#ce8080"/><path d="M1757.796-46.435l-208.378 80.494 125.018 79.773z" fill="#d17f78" stroke="#d17f78"/><path d="M1757.796-46.435l-83.36 160.267 205.286-.869z" fill="#cb7e71" stroke="#cb7e71"/><path d="M1757.796-46.435l121.926 159.397-20.596-211.603z" fill="#c78080" stroke="#c78080"/><path d="M1859.127-98.641l20.596 211.603 112.456-.754z" fill="#c27e76" stroke="#c27e76"/><path d="M1859.127-98.641l133.053 210.85 24.295-234.993z" fill="#bf8080" stroke="#bf8080"/><path d="M2016.475-122.784l-24.295 234.993 42.827 62.853z" fill="#bb7e72" stroke="#bb7e72"/><path d="M-116.577 48.02l-15.913 268.427 29.149-140.614z" fill="#fff7cd" stroke="#fff7cd"/><path d="M-116.577 48.02l13.236 127.813 127.141-148.333z" fill="#fff8de" stroke="#fff8de"/><path d="M23.801 27.5l-127.141 148.333 189.798 4.289z" fill="#fff4cd" stroke="#fff4cd"/><path d="M23.801 27.5l62.657 152.621 111.192-110.122z" fill="#fff0cb" stroke="#fff0cb"/><path d="M197.649 69.999l-111.192 110.122 161.752 60.174z" fill="#ffeab2" stroke="#ffeab2"/><path d="M197.649 69.999l50.561 170.296 79.741-108.886z" fill="#fee7ae" stroke="#fee7ae"/><path d="M327.951 131.41l-79.741 108.886 151.868-55.183z" fill="#fee29e" stroke="#fee29e"/><path d="M327.951 131.41l72.127 53.703 95.703-134.18z" fill="#fee0a6" stroke="#fee0a6"/><path d="M495.781 50.933l-95.703 134.18 160.788 84.23z" fill="#fed895" stroke="#fed895"/><path d="M495.781 50.933l65.085 218.41 139.432-190.142z" fill="#fed197" stroke="#fed197"/><path d="M700.297 79.201l-139.432 190.142 174.131-22.167z" fill="#fec784" stroke="#fec784"/><path d="M700.297 79.201l34.699 167.975 68.416-194.262z" fill="#fec48f" stroke="#fec48f"/><path d="M803.412 52.914l-68.416 194.262 70.284 8.79z" fill="#fdbf7f" stroke="#fdbf7f"/><path d="M803.412 52.914l1.868 203.052 159.634-175.267z" fill="#fbba88" stroke="#fbba88"/><path d="M964.914 80.699l-159.634 175.267 203.771-4.599z" fill="#f9b175" stroke="#f9b175"/><path d="M964.914 80.699l44.137 170.668 93.846-153.433z" fill="#f5ab7d" stroke="#f5ab7d"/><path d="M1102.896 97.933l-93.846 153.433 116.331-2.841z" fill="#f4a36d" stroke="#f4a36d"/><path d="M1102.896 97.933l22.485 150.592 172.458-27.848z" fill="#f09c6a" stroke="#f09c6a"/><path d="M1102.896 97.933l194.943 122.744-13.482-147.767z" fill="#ec9975" stroke="#ec9975"/><path d="M1284.358 72.91l13.482 147.767 96.478-159.686z" fill="#e69071" stroke="#e69071"/><path d="M1394.318 60.992l-96.478 159.686 113.885 49.636z" fill="#e48a5e" stroke="#e48a5e"/><path d="M1394.318 60.992l17.407 209.322 137.694-236.255z" fill="#df8468" stroke="#df8468"/><path d="M1549.418 34.059l-137.694 236.255 182.768-6.361z" fill="#da7b53" stroke="#da7b53"/><path d="M1549.418 34.059l45.074 229.894 79.945-150.121z" fill="#d57b5e" stroke="#d57b5e"/><path d="M1674.437 113.831l-79.945 150.121 83.049 8.386z" fill="#d2744e" stroke="#d2744e"/><path d="M1674.437 113.831l3.104 158.507 202.182-159.377z" fill="#cc7a57" stroke="#cc7a57"/><path d="M1879.723 112.962l-202.182 159.377 252.923-68.472z" fill="#c77851" stroke="#c77851"/><path d="M1879.723 112.962l50.741 90.905 61.715-91.658z" fill="#c07b5d" stroke="#c07b5d"/><path d="M1992.179 112.208l-61.715 91.658 104.542-28.806z" fill="#bd7b58" stroke="#bd7b58"/><path d="M-103.341 175.833l-29.149 140.614 218.948-136.325z" fill="#ffedbe" stroke="#ffedbe"/><path d="M86.457 180.122l-218.948 136.325 180.692 75.048z" fill="#ffdcae" stroke="#ffdcae"/><path d="M86.457 180.122l-38.255 211.373 143.486-72.247z" fill="#ffd7a3" stroke="#ffd7a3"/><path d="M86.457 180.122l105.231 139.126 56.521-78.952z" fill="#ffdea4" stroke="#ffdea4"/><path d="M248.21 240.296l-56.521 78.952 201.856 14.835z" fill="#fecf91" stroke="#fecf91"/><path d="M248.21 240.296l145.335 93.786 6.533-148.969z" fill="#fed491" stroke="#fed491"/><path d="M400.078 185.113l-6.533 148.969 167.321-64.74z" fill="#fecb87" stroke="#fecb87"/><path d="M560.865 269.343l-167.321 64.74 168.159 49.134z" fill="#feba7a" stroke="#feba7a"/><path d="M560.865 269.343l.839 113.873 116.716-41.499z" fill="#feb273" stroke="#feb273"/><path d="M560.865 269.343l117.555 72.374 56.577-94.541z" fill="#feb677" stroke="#feb677"/><path d="M734.996 247.176l-56.577 94.541 109.065 62.102z" fill="#fea76b" stroke="#fea76b"/><path d="M734.996 247.176l52.488 156.643 17.796-147.853z" fill="#fda96d" stroke="#fda96d"/><path d="M805.28 255.966l-17.796 147.853 242.817.504z" fill="#fa955f" stroke="#fa955f"/><path d="M805.28 255.966l225.022 148.357-21.251-152.956z" fill="#f89a64" stroke="#f89a64"/><path d="M1009.051 251.367l21.251 152.956 95.08-155.798z" fill="#f4915f" stroke="#f4915f"/><path d="M1125.382 248.525l-95.08 155.798 137.068-39.803z" fill="#f38556" stroke="#f38556"/><path d="M1125.382 248.525l41.988 115.994 137.646-38.042z" fill="#ee8155" stroke="#ee8155"/><path d="M1125.382 248.525l179.634 77.952-7.176-105.8z" fill="#ec875a" stroke="#ec875a"/><path d="M1297.84 220.677l7.176 105.8 106.709-56.164z" fill="#e67c52" stroke="#e67c52"/><path d="M1411.724 270.314l-106.709 56.164 165.233 53.67z" fill="#e26c46" stroke="#e26c46"/><path d="M1411.724 270.314l58.524 109.833 124.244-116.194z" fill="#dc6643" stroke="#dc6643"/><path d="M1594.492 263.953l-124.244 116.194 73.501 17.156z" fill="#d95a3a" stroke="#d95a3a"/><path d="M1594.492 263.953l-50.743 133.35 133.792-124.965z" fill="#d5613f" stroke="#d5613f"/><path d="M1677.541 272.339l-133.792 124.965 198.209 23.169z" fill="#d25737" stroke="#d25737"/><path d="M1677.541 272.339l64.417 148.133 158.428-95.857z" fill="#ca5c3b" stroke="#ca5c3b"/><path d="M1677.541 272.339l222.844 52.277 30.079-120.749z" fill="#c66a46" stroke="#c66a46"/><path d="M1930.464 203.867l-30.079 120.749 100.909 61.176z" fill="#c06240" stroke="#c06240"/><path d="M1930.464 203.867l70.831 181.925 33.712-210.73z" fill="#bd6c48" stroke="#bd6c48"/><path d="M2035.006 175.061l-33.712 210.73 18.621 132.48z" fill="#bb5738" stroke="#bb5738"/><path d="M2035.006 175.061l-15.09 343.21 7.689 120.345z" fill="#bb462d" stroke="#bb462d"/><path d="M-132.49 316.447l44.706 849.679 2.646-316.261z" fill="#e77d77" stroke="#e77d77"/><path d="M-132.49 316.447l47.352 533.417 33.334-321.718z" fill="#ffa894" stroke="#ffa894"/><path d="M-132.49 316.447l80.686 211.699 100.006-136.652z" fill="#ffc6a2" stroke="#ffc6a2"/><path d="M48.202 391.495l-100.006 136.652 152.327 44.084z" fill="#ffb18f" stroke="#ffb18f"/><path d="M48.202 391.495l52.32 180.735 91.166-252.983z" fill="#ffbc90" stroke="#ffbc90"/><path d="M191.688 319.247l-91.166 252.983 112.758 12.491z" fill="#ffab82" stroke="#ffab82"/><path d="M191.688 319.247l21.592 265.474 155.975-20.251z" fill="#fea879" stroke="#fea879"/><path d="M191.688 319.247l177.567 245.223 24.29-230.388z" fill="#feb77e" stroke="#feb77e"/><path d="M393.545 334.082l-24.29 230.388 192.449-181.255z" fill="#feab70" stroke="#feab70"/><path d="M561.704 383.216l-192.449 181.255 210.108-11.574z" fill="#fe9663" stroke="#fe9663"/><path d="M561.704 383.216l17.659 169.681 113.291 13.503z" fill="#fe8d5c" stroke="#fe8d5c"/><path d="M561.704 383.216l130.95 183.183-14.235-224.682z" fill="#fe9963" stroke="#fe9963"/><path d="M678.42 341.717l14.235 224.682 94.83-162.58z" fill="#fe925d" stroke="#fe925d"/><path d="M787.485 403.819l-94.83 162.58 145.414-17.226z" fill="#fe7e52" stroke="#fe7e52"/><path d="M787.485 403.819l50.584 145.354 192.233-144.85z" fill="#fa8052" stroke="#fa8052"/><path d="M1030.302 404.323l-192.233 144.85 127.747 16.184z" fill="#f86f49" stroke="#f86f49"/><path d="M1030.302 404.323l-64.487 161.034 206.678-29.864z" fill="#f46744" stroke="#f46744"/><path d="M1030.302 404.323l142.191 131.17-5.123-170.974z" fill="#f26f49" stroke="#f26f49"/><path d="M1167.37 364.52l5.123 170.974 132.522-209.016z" fill="#ed6c47" stroke="#ed6c47"/><path d="M1305.016 326.477l-132.522 209.016 91.76 45.641z" fill="#eb5a3b" stroke="#eb5a3b"/><path d="M1305.016 326.477l-40.762 254.657 129.361-62.112z" fill="#e75338" stroke="#e75338"/><path d="M1305.016 326.477l88.599 192.545 76.634-138.875z" fill="#e25b3b" stroke="#e25b3b"/><path d="M1470.248 380.147l-76.634 138.875 146.18-5.963z" fill="#de462e" stroke="#de462e"/><path d="M1470.248 380.147l69.546 132.912 3.955-115.756z" fill="#da4a30" stroke="#da4a30"/><path d="M1543.749 397.303l-3.955 115.756 133.419 28.338z" fill="#d63d28" stroke="#d63d28"/><path d="M1543.749 397.303l129.464 144.094 68.745-120.925z" fill="#d2442c" stroke="#d2442c"/><path d="M1741.958 420.472l-68.745 120.925 106.75 75.172z" fill="#cd3423" stroke="#cd3423"/><path d="M1741.958 420.472l38.005 196.097 81.438-49.238z" fill="#c93222" stroke="#c93222"/><path d="M1741.958 420.472l119.443 146.859 38.984-242.716z" fill="#c7472e" stroke="#c7472e"/><path d="M1900.386 324.615l-38.984 242.716 139.894-181.54z" fill="#c14a2f" stroke="#c14a2f"/><path d="M2001.295 385.791l-139.894 181.54 158.515-49.06z" fill="#bf3c27" stroke="#bf3c27"/><path d="M-51.804 528.146l-33.334 321.718 64.132-198.539z" fill="#f28c7e" stroke="#f28c7e"/><path d="M-51.804 528.146l30.798 123.179 121.528-79.095z" fill="#fc9f86" stroke="#fc9f86"/><path d="M100.522 572.23l-121.528 79.095 104.7 16.482z" fill="#f7927b" stroke="#f7927b"/><path d="M100.522 572.23l-16.828 95.577 100.59-2.803z" fill="#f78d73" stroke="#f78d73"/><path d="M100.522 572.23l83.762 92.774 28.996-80.283z" fill="#fa9273" stroke="#fa9273"/><path d="M213.28 584.721l-28.996 80.283 150.704 40.879z" fill="#f48464" stroke="#f48464"/><path d="M213.28 584.721l121.708 121.162 34.267-141.413z" fill="#f88962" stroke="#f88962"/><path d="M369.255 564.471l-34.267 141.413 152.756-33.013z" fill="#f57d55" stroke="#f57d55"/><path d="M369.255 564.471l118.489 108.4 91.619-119.974z" fill="#fb8258" stroke="#fb8258"/><path d="M579.363 552.896l-91.619 119.974 127.482-6.294z" fill="#f7744d" stroke="#f7744d"/><path d="M579.363 552.896l35.863 113.68 77.428-100.178z" fill="#fa774f" stroke="#fa774f"/><path d="M692.655 566.399l-77.428 100.178 225.611-31.497z" fill="#f76945" stroke="#f76945"/><path d="M692.655 566.399l148.182 68.68-2.769-85.907z" fill="#fb6c47" stroke="#fb6c47"/><path d="M838.068 549.173l2.769 85.907 124.978-69.722z" fill="#f86442" stroke="#f86442"/><path d="M965.815 565.357l-124.978 69.722 165.194 39.399z" fill="#f15538" stroke="#f15538"/><path d="M965.815 565.357l40.215 109.121 88.574-40.007z" fill="#ee4e34" stroke="#ee4e34"/><path d="M965.815 565.357l128.79 69.114 77.889-98.978z" fill="#f25439" stroke="#f25439"/><path d="M1172.493 535.493l-77.889 98.978 169.649-53.336z" fill="#ed4a33" stroke="#ed4a33"/><path d="M1264.254 581.134l-169.649 53.336 216.733 77.079z" fill="#e43827" stroke="#e43827"/><path d="M1264.254 581.134l47.084 130.416 82.277-192.528z" fill="#e23726" stroke="#e23726"/><path d="M1393.614 519.022l-82.277 192.528 92.874 18.448z" fill="#da271b" stroke="#da271b"/><path d="M1393.614 519.022l10.597 210.976 152.11-90.247z" fill="#d72519" stroke="#d72519"/><path d="M1393.614 519.022l162.707 120.729-16.527-126.692z" fill="#dc3221" stroke="#dc3221"/><path d="M1539.794 513.059l16.527 126.692 116.892-98.354z" fill="#d62c1e" stroke="#d62c1e"/><path d="M1673.213 541.397l-116.892 98.354 223.642-23.182z" fill="#cd2419" stroke="#cd2419"/><path d="M1861.401 567.331l-81.438 49.238 61.338 88.509z" fill="#c01d14" stroke="#c01d14"/><path d="M1861.401 567.331l-20.1 137.747 186.304-66.461z" fill="#ba1b12" stroke="#ba1b12"/><path d="M1861.401 567.331l166.204 71.286-7.689-120.345z" fill="#bd2a1c" stroke="#bd2a1c"/><path d="M-21.006 651.325l-64.132 198.539 168.833-182.057z" fill="#ed7f72" stroke="#ed7f72"/><path d="M83.694 667.807l-168.833 182.057 191.932 25.024z" fill="#e57769" stroke="#e57769"/><path d="M83.694 667.807l23.099 207.081 90.504-91.835z" fill="#e7725f" stroke="#e7725f"/><path d="M83.694 667.807l113.603 115.246-13.012-118.049z" fill="#ef7c64" stroke="#ef7c64"/><path d="M184.285 665.004l13.012 118.049 137.691-77.169z" fill="#ed755a" stroke="#ed755a"/><path d="M334.988 705.883l-137.691 77.169 237.632 2.084z" fill="#e8694c" stroke="#e8694c"/><path d="M334.988 705.883l99.941 79.253 52.815-112.266z" fill="#ed6a48" stroke="#ed6a48"/><path d="M487.744 672.87l-52.815 112.266 185.301 48.994z" fill="#e85c3d" stroke="#e85c3d"/><path d="M487.744 672.87l132.486 161.261-5.004-167.554z" fill="#ec5d3e" stroke="#ec5d3e"/><path d="M615.226 666.577l5.004 167.554 232.115 4.793z" fill="#e64d31" stroke="#e64d31"/><path d="M615.226 666.577l237.12 172.347-11.509-203.844z" fill="#ed5033" stroke="#ed5033"/><path d="M840.837 635.079l11.509 203.844 153.685-164.445z" fill="#e8432c" stroke="#e8432c"/><path d="M1006.03 674.478l-153.685 164.445 168.197-4.488z" fill="#df3623" stroke="#df3623"/><path d="M1006.03 674.478l14.513 159.957 73.943-62.014z" fill="#df2f1f" stroke="#df2f1f"/><path d="M1006.03 674.478l88.456 97.943.118-137.95z" fill="#e63a27" stroke="#e63a27"/><path d="M1094.605 634.471l-.118 137.95 216.851-60.871z" fill="#e02e20" stroke="#e02e20"/><path d="M1311.338 711.55l-216.851 60.871 224.046 25.64z" fill="#d61d14" stroke="#d61d14"/><path d="M1311.338 711.55l7.194 86.511 85.679-68.063z" fill="#d1140d" stroke="#d1140d"/><path d="M1404.211 729.999l-85.679 68.063 95.095 29.704z" fill="#ca0f0b" stroke="#ca0f0b"/><path d="M1404.211 729.999l9.416 97.767 177.812 48.402z" fill="#c20705" stroke="#c20705"/><path d="M1404.211 729.999l187.228 146.168-35.118-236.415z" fill="#c60302" stroke="#c60302"/><path d="M1556.321 639.752l35.118 236.415 175.862-93.535z" fill="#bc0000" stroke="#bc0000"/><path d="M1556.321 639.752l210.98 142.88 12.661-166.063z" fill="#c2110c" stroke="#c2110c"/><path d="M1779.963 616.569l-12.661 166.063 73.999-77.554z" fill="#b90c08" stroke="#b90c08"/><path d="M1841.301 705.078l-73.999 77.554 51.608 21.957z" fill="#b20000" stroke="#b20000"/><path d="M1841.301 705.078l-22.391 99.511 167.784-1.409z" fill="#ad0000" stroke="#ad0000"/><path d="M1841.301 705.078l145.393 98.102 40.911-164.563z" fill="#ae0906" stroke="#ae0906"/><path d="M2027.605 638.617l-40.911 164.563 25.69 150.923z" fill="#a10000" stroke="#a10000"/><path d="M2027.605 638.617l-15.222 315.486 6.448 117.319z" fill="#970000" stroke="#970000"/><path d="M-85.139 849.864l-2.646 316.261 49.571-231.937z" fill="#d07c74" stroke="#d07c74"/><path d="M-85.139 849.864l46.925 84.324 55.619-2.351z" fill="#d97a70" stroke="#d97a70"/><path d="M-85.139 849.864l102.544 81.973 89.387-56.949z" fill="#db786b" stroke="#db786b"/><path d="M106.793 874.888l-89.387 56.949 116.805 140.589z" fill="#d27464" stroke="#d27464"/><path d="M106.793 874.888l27.418 197.538 125.699-119.522z" fill="#d2705c" stroke="#d2705c"/><path d="M106.793 874.888l153.117 78.016-62.613-169.852z" fill="#dc6f59" stroke="#dc6f59"/><path d="M197.297 783.053l62.613 169.852 175.02-167.768z" fill="#df6a4e" stroke="#df6a4e"/><path d="M434.929 785.137l-175.02 167.768 160.003 31.639z" fill="#d86747" stroke="#d86747"/><path d="M434.929 785.137l-15.017 199.407 105.636-109.729z" fill="#db6040" stroke="#db6040"/><path d="M434.929 785.137l90.619 89.678 94.683-40.683z" fill="#e05b3c" stroke="#e05b3c"/><path d="M525.548 874.814l-105.636 109.729 128.471-40.482z" fill="#d55d3e" stroke="#d55d3e"/><path d="M525.548 874.814l22.835 69.247 71.847-109.93z" fill="#da573a" stroke="#da573a"/><path d="M620.231 834.131l-71.847 109.93 115.47-18.51z" fill="#d85437" stroke="#d85437"/><path d="M620.231 834.131l43.623 91.419 188.492-86.627z" fill="#dc4b30" stroke="#dc4b30"/><path d="M852.346 838.924l-188.492 86.627 151.275 2.206z" fill="#d8462c" stroke="#d8462c"/><path d="M852.346 838.924l-37.218 88.833 148.283 89.661z" fill="#d13d27" stroke="#d13d27"/><path d="M852.346 838.924l111.066 178.494 57.132-182.982z" fill="#d23724" stroke="#d23724"/><path d="M1020.543 834.435l-57.132 182.982 169.631-62.539z" fill="#cb2f1f" stroke="#cb2f1f"/><path d="M1020.543 834.435l112.5 120.443-38.557-182.457z" fill="#d32b1d" stroke="#d32b1d"/><path d="M1094.486 772.421l38.557 182.457 161.491-29.616z" fill="#cc2318" stroke="#cc2318"/><path d="M1094.486 772.421l200.047 152.841 23.998-127.201z" fill="#ce1d14" stroke="#ce1d14"/><path d="M1318.532 798.061l-23.998 127.201 119.094-97.497z" fill="#c5130d" stroke="#c5130d"/><path d="M1413.627 827.765l-119.094 97.497 156.107 97.048z" fill="#ba0f0a" stroke="#ba0f0a"/><path d="M1413.627 827.765l37.014 194.545 140.798-146.143z" fill="#b60504" stroke="#b60504"/><path d="M1591.439 876.167l-140.798 146.143 144.862-18.509z" fill="#ac0000" stroke="#ac0000"/><path d="M1591.439 876.167l4.064 127.634 106.387-8.341z" fill="#a70000" stroke="#a70000"/><path d="M1591.439 876.167l110.451 119.293 65.411-212.828z" fill="#ac0000" stroke="#ac0000"/><path d="M1767.302 782.632l-65.411 212.828 117.019-190.871z" fill="#a00" stroke="#a00"/><path d="M1818.91 804.589l-117.019 190.871 219.264 6.056z" fill="#9e0000" stroke="#9e0000"/><path d="M1818.91 804.589l102.245 196.927 65.539-198.336z" fill="#9f0000" stroke="#9f0000"/><path d="M1986.694 803.18l-65.539 198.336 91.229-47.412z" fill="#960000" stroke="#960000"/><path d="M-38.213 934.188l-49.571 231.937 105.19-234.288z" fill="#cd7a70" stroke="#cd7a70"/><path d="M17.406 931.837l-105.19 234.288 221.995-93.699z" fill="#c8776b" stroke="#c8776b"/><path d="M259.91 952.904l-125.699 119.522 139.717 75.445z" fill="#c76e56" stroke="#c76e56"/><path d="M259.91 952.904l14.018 194.967 72.634-82.813z" fill="#c76a4f" stroke="#c76a4f"/><path d="M259.91 952.904l86.652 112.154 73.351-80.515z" fill="#cd684a" stroke="#cd684a"/><path d="M419.912 984.543l-73.351 80.515 204.464 50.767z" fill="#c76242" stroke="#c76242"/><path d="M419.912 984.543l131.113 131.282-2.642-171.764z" fill="#cc5c3d" stroke="#cc5c3d"/><path d="M548.383 944.061l2.642 171.764 125.602-25.184z" fill="#c75538" stroke="#c75538"/><path d="M548.383 944.061l128.243 146.58-12.773-165.091z" fill="#ce5236" stroke="#ce5236"/><path d="M663.854 925.55l12.773 165.091 138.502-162.884z" fill="#cf4b30" stroke="#cf4b30"/><path d="M815.128 927.757l-138.502 162.884 246.642-5.697z" fill="#c8442b" stroke="#c8442b"/><path d="M815.128 927.757l108.14 157.187 40.143-67.526z" fill="#c73b26" stroke="#c73b26"/><path d="M963.412 1017.418l-40.143 67.526 224.506 46.946z" fill="#bc3221" stroke="#bc3221"/><path d="M963.412 1017.418l184.363 114.472-14.732-177.011z" fill="#bf2b1d" stroke="#bf2b1d"/><path d="M1133.043 954.879l14.732 177.011 142.544-31.398z" fill="#b72217" stroke="#b72217"/><path d="M1133.043 954.879l157.276 145.613 4.214-175.23z" fill="#bc1d14" stroke="#bc1d14"/><path d="M1294.534 925.262l-4.214 175.23 160.322-78.182z" fill="#b3130d" stroke="#b3130d"/><path d="M1450.641 1022.31l-160.322 78.182 148.81 82.986z" fill="#a60e0a" stroke="#a60e0a"/><path d="M1450.641 1022.31l-11.511 161.168 98.764-69.287z" fill="#a10604" stroke="#a10604"/><path d="M1450.641 1022.31l87.253 91.88 57.609-110.389z" fill="#a40101" stroke="#a40101"/><path d="M1595.503 1003.801l-57.609 110.389 172.367-39.317z" fill="#9c0000" stroke="#9c0000"/><path d="M1595.503 1003.801l114.758 71.073-8.37-79.414z" fill="#9d0000" stroke="#9d0000"/><path d="M1701.89 995.46l8.37 79.414 210.894-73.358z" fill="#970000" stroke="#970000"/><path d="M1921.154 1001.516l-210.894 73.358 167.546 71.856z" fill="#8d0000" stroke="#8d0000"/><path d="M1921.154 1001.516l-43.348 145.214 141.024-75.308z" fill="#870000" stroke="#870000"/><path d="M1921.154 1001.516l97.676 69.906-6.448-117.319z" fill="#8b0000" stroke="#8b0000"/><path d="M-87.784 1166.126l914.416 17.87-552.704-36.124z" fill="#bb684a" stroke="#bb684a"/><path d="M-87.784 1166.126l361.712-18.254-139.717-75.445z" fill="#c07362" stroke="#c07362"/><path d="M273.928 1147.871l552.704 36.124-275.607-68.171z" fill="#bd593b" stroke="#bd593b"/><path d="M273.928 1147.871l277.097-32.046-204.464-50.767z" fill="#c16645" stroke="#c16645"/><path d="M551.025 1115.825l275.607 68.171-150.005-93.355z" fill="#be4e32" stroke="#be4e32"/><path d="M676.627 1090.641l150.005 93.355 96.637-99.053z" fill="#be432b" stroke="#be432b"/><path d="M826.632 1183.996l612.498-.518-291.355-51.588z" fill="#ae261a" stroke="#ae261a"/><path d="M826.632 1183.996l321.143-52.107-224.506-46.946z" fill="#b73523" stroke="#b73523"/><path d="M1147.775 1131.889l291.355 51.588-148.81-82.986z" fill="#a81810" stroke="#a81810"/><path d="M1439.13 1183.478l438.677-36.748-339.913-32.539z" fill="#930000" stroke="#930000"/><path d="M1537.894 1114.19l339.913 32.539-167.546-71.856z" fill="#910000" stroke="#910000"/></svg>